# xmcd CD database file
#
# Track frame offsets:
#	150
#	22300
#	44513
#	66000
#
# Disc length: 1172 seconds
#
# Revision: 0
# Processed by: cddbd v1.5.1PL2 Copyright (c) Steve Scherf et al.
# Submitted via: CDex 1.40Release
#
DISCID=35049204
DTITLE=SANISAI - 向日葵〜ひまわり〜
DYEAR=2005
DGENRE=J-Pop
TTITLE0=向日葵〜ひまわり〜
TTITLE1=カーテンコールが聞こえない
TTITLE2=ぼくらは今日も
TTITLE3=向日葵〜ひまわり〜[Instrumental]
EXTD=YEAR: 2005
EXTT0=
EXTT1=
EXTT2=
EXTT3=
PLAYORDER=
